<svg xmlns="http://www.w3.org/2000/svg" 
     width="256" 
     height="256" 
     stroke="none" 
     fill="none" 
     stroke-width="3.5" 
     stroke-linecap="round" 
     stroke-linejoin="round" 
     stroke-miterlimit="10" 
     viewBox="0 0 50 50" 
     class="icon icon--battery svg-icon--2xl mx-auto">



  <!-- Outer black border -->
   <rect x="0" y="0" width="50" height="50" rx="3" ry="3" fill="#FFBC00"  />

  <!-- Inset yellow background -->
  <rect x="1.25" y="1.25" width="47.5" height="47.5" rx="2" ry="2" fill="#FFBC00" />

  <!-- Padded inner elements -->
  <g transform="scale(0.85) translate(3.5,4)">
    <path d="M38 9L13 9C11.8954 9 11 9.89543 11 11L11 35.3077L11 45C11 46.1046 11.8954 47 13 47L38 47C39.1046 47 40 46.1046 40 45L40 39.4L40 11C40 9.89543 39.1046 9 38 9Z" stroke="#111111"></path>
<g transform="scale(0.6) translate(26.5,32)">
    <path d="M23.5 13.187h-7.5v-12.187l-7.5 17.813h7.5v12.187l7.5-17.813z"
        fill="#111111" 
         stroke-width="1.2" 
        stroke="#111111" 
        transform="rotate(10 25 15)"/>
</g>

    <path d="M20 9L20 5C20 4.44772 20.4477 4 21 4L31 4C31.5523 4 32 4.44772 32 5L32 9" stroke="#111111"></path>
  </g>
</svg>
