<svg xmlns="http://www.w3.org/2000/svg" 
     width="256" 
     height="256" 
     stroke="none" 
     fill="none" 
     stroke-width="3" 
     stroke-linecap="round" 
     stroke-linejoin="round" 
     stroke-miterlimit="10" 
     viewBox="0 0 50 50" 
     class="icon icon--speed svg-icon--2xl mx-auto">

  <!-- Outer black border -->
    <rect x="0" y="0" width="50" height="50" rx="3" ry="3" fill="#FFBC00"  />


  <!-- Inset yellow background -->
  <rect x="1.25" y="1.25" width="47.5" height="47.5" rx="2" ry="2" fill="#FFBC00" />

  <!-- Icon group, slightly scaled and positioned -->
  <g transform="scale(0.95) translate(0.6,0)">
    <path d="M38.5009 29.0102C38.5017 26.3922 37.7055 23.8489 36.2368 21.7107" stroke="#111111"></path>
    <path d="M12.8123 29.0712C12.8158 26.8037 13.4186 24.5774 14.5595 22.6178C15.7005 20.6583 17.3392 19.0351 19.3094 17.9128C21.2797 16.7905 23.5115 16.2089 25.779 16.2268C28.0464 16.2448 30.2689 16.8618 32.2211 18.0153" stroke="#111111"></path>
    <path d="M25.7175 28.9085L38.4046 19.7368" stroke="#111111"></path>
    <path d="M25.6765 31.6522C27.1356 31.6522 28.3185 30.4694 28.3185 29.0102C28.3185 27.551 27.1356 26.3682 25.6765 26.3682C24.2173 26.3682 23.0344 27.551 23.0344 29.0102C23.0344 30.4694 24.2173 31.6522 25.6765 31.6522Z" fill="#FFBC00" stroke="#111111"></path>
    <path d="M7.47617 38C5.68939 34.9602 4.66675 31.431 4.66675 27.6667C4.66675 16.2528 14.0688 7 25.6667 7C37.2647 7 46.6667 16.2528 46.6667 27.6667C46.6667 31.431 45.6441 34.9602 43.8573 38" stroke="#111111"></path>
    <path d="M4.66675 28H7.66675" stroke="#111111"></path>
    <path d="M25.6667 7L25.6667 10" stroke="#111111"></path>
    <path d="M46.6667 28L43.6667 28" stroke="#111111"></path>
    <path d="M10.6667 14L12.7881 16.1213" stroke="#111111"></path>
    <path d="M40.364 14L38.2427 16.1213" stroke="#111111"></path>
    <path d="M15.6667 43V44" stroke="#111111"></path>
    <path d="M20.6667 42V44" stroke="#111111"></path>
    <path d="M25.6667 41V44" stroke="#111111"></path>
    <path d="M30.6667 40V44" stroke="#111111"></path>
    <path d="M35.6667 39V44" stroke="#111111"></path>
  </g>
</svg>
